<?xml version="1.0" standalone="no"?>
<!DOCTYPE svg PUBLIC "-//W3C//DTD SVG 20010904//EN"
 "http://www.w3.org/TR/2001/REC-SVG-20010904/DTD/svg10.dtd">
<svg version="1.0" xmlns="http://www.w3.org/2000/svg"
 width="1862.000000pt" height="1862.000000pt" viewBox="0 0 1862.000000 1862.000000"
 preserveAspectRatio="xMidYMid meet">
<metadata>
Created by potrace 1.11, written by Peter Selinger 2001-2013
</metadata>
<g transform="translate(0.000000,1862.000000) scale(0.100000,-0.100000)"
fill="#000000" stroke="none">
<path d="M8915 18490 c-49 -71 -123 -176 -162 -232 -40 -57 -77 -110 -83 -118
-6 -8 -69 -98 -140 -200 -71 -102 -135 -193 -142 -204 -7 -10 -20 -28 -29 -40
-8 -11 -41 -57 -71 -101 -42 -61 -1176 -1682 -1228 -1755 -32 -46 -479 -685
-547 -783 -37 -53 -74 -105 -81 -115 -7 -9 -71 -100 -142 -202 -71 -102 -134
-192 -140 -200 -6 -8 -63 -89 -127 -180 -63 -91 -127 -183 -141 -205 -14 -22
-28 -42 -32 -45 -3 -3 -146 -205 -317 -450 -171 -245 -351 -503 -401 -575 -51
-71 -96 -137 -102 -145 -6 -8 -32 -45 -58 -82 -26 -37 -100 -142 -164 -235
-65 -92 -196 -280 -292 -418 -96 -137 -206 -294 -243 -348 -37 -54 -73 -104
-78 -110 -6 -7 -22 -30 -37 -52 -14 -22 -50 -74 -80 -116 -29 -42 -102 -147
-163 -233 -60 -86 -146 -207 -189 -269 -44 -62 -104 -148 -134 -192 -31 -44
-70 -100 -87 -125 -44 -62 -265 -377 -377 -538 -51 -73 -109 -155 -128 -182
-19 -27 -71 -101 -115 -165 -44 -64 -87 -124 -95 -135 -8 -10 -35 -49 -60 -85
-52 -76 -184 -265 -265 -380 -75 -106 -347 -495 -432 -618 -37 -53 -74 -105
-81 -115 -7 -9 -102 -145 -212 -302 -109 -157 -227 -325 -262 -374 -35 -49
-83 -119 -108 -155 -25 -36 -66 -95 -91 -131 -25 -36 -211 -300 -412 -588
l-367 -523 0 -169 c0 -93 3 -171 8 -174 4 -2 21 2 39 9 33 14 73 64 213 266
153 221 193 279 505 724 269 384 626 893 767 1095 24 36 352 504 728 1040 376
536 708 1011 739 1055 101 145 300 430 313 448 7 9 59 84 116 165 782 1118
941 1343 947 1343 7 0 251 -345 627 -886 45 -66 679 -969 778 -1110 50 -71
149 -213 220 -315 70 -102 137 -196 147 -210 11 -14 50 -70 88 -125 38 -55
134 -193 214 -307 158 -225 270 -384 342 -487 25 -36 387 -554 805 -1151 417
-597 766 -1095 774 -1107 21 -31 450 -642 541 -771 41 -59 100 -143 131 -187
102 -147 587 -840 602 -860 8 -11 227 -324 486 -695 259 -371 480 -686 490
-700 10 -14 40 -56 67 -95 26 -38 125 -180 220 -315 94 -135 217 -310 273
-390 56 -80 234 -334 396 -565 161 -231 300 -429 308 -440 8 -11 129 -184 269
-385 141 -201 325 -464 409 -585 85 -121 212 -302 282 -402 l128 -183 140 0
140 0 -7 28 c-7 31 -19 48 -345 512 -45 64 -898 1282 -994 1420 -134 191 -949
1356 -966 1380 -14 20 -530 757 -588 840 -111 158 -776 1109 -1094 1562 -191
274 -348 503 -348 510 0 7 17 36 38 63 20 28 51 70 67 95 17 25 34 50 38 55 5
6 107 152 228 325 121 173 299 428 395 565 370 527 759 1083 813 1160 46 67
203 291 241 345 18 26 471 672 518 740 25 36 298 425 606 865 308 440 607 868
664 950 58 83 122 175 144 205 22 30 98 138 168 240 128 183 153 219 249 354
l50 69 18 -30 c16 -26 264 -380 1160 -1661 122 -174 227 -324 233 -332 6 -8
71 -102 145 -207 74 -106 196 -280 270 -385 74 -106 139 -200 145 -208 6 -8
69 -98 140 -200 71 -102 134 -192 140 -200 6 -8 58 -82 116 -165 57 -82 141
-202 185 -265 45 -63 187 -266 316 -450 129 -184 293 -420 366 -523 73 -104
139 -199 147 -210 229 -329 542 -776 550 -787 6 -8 78 -112 161 -230 83 -118
163 -232 180 -252 76 -96 219 -50 219 71 0 50 -33 100 -600 906 -154 218 -908
1296 -952 1360 -45 65 -59 85 -193 275 -245 349 -732 1044 -745 1065 -17 27
-630 901 -917 1308 -106 149 -198 282 -205 294 -7 12 -38 57 -69 100 -31 43
-76 107 -101 143 -88 127 -128 183 -528 754 -223 317 -412 588 -420 600 -8 13
-46 68 -85 122 -38 54 -77 110 -86 124 -10 14 -154 221 -322 460 -168 239
-478 681 -689 983 -211 301 -446 637 -523 747 -77 110 -408 582 -735 1050
-327 468 -706 1009 -842 1203 -135 194 -266 380 -290 415 -24 34 -63 91 -88
126 -25 35 -88 124 -140 199 l-95 136 -245 0 -245 1 -90 -130z m805 -630 c9
-13 223 -320 270 -387 8 -11 76 -107 150 -213 74 -106 142 -202 150 -213 26
-38 259 -371 270 -387 11 -15 261 -372 280 -400 6 -8 36 -51 67 -95 31 -44 91
-129 133 -190 121 -175 893 -1277 913 -1305 10 -14 77 -108 147 -210 71 -102
142 -203 158 -225 16 -22 129 -184 252 -360 122 -176 248 -356 280 -400 31
-44 82 -116 112 -160 51 -74 432 -619 459 -656 7 -10 10 -21 8 -25 -4 -8
-8249 -13 -8249 -5 0 1 183 265 407 585 224 319 423 604 442 631 19 28 293
419 609 870 317 451 594 847 617 880 65 94 950 1359 1025 1465 37 52 258 367
490 700 233 333 450 642 482 688 l60 82 228 -327 c126 -180 234 -334 240 -343z
m3658 -5489 c2 -1 -16 -29 -40 -63 -25 -35 -65 -92 -90 -128 -108 -156 -299
-428 -325 -465 -16 -22 -70 -98 -120 -170 -49 -71 -107 -155 -129 -185 -21
-30 -156 -224 -301 -430 -144 -206 -267 -382 -273 -390 -6 -8 -132 -188 -280
-400 -148 -212 -310 -443 -360 -515 -51 -71 -240 -341 -420 -600 -181 -258
-340 -486 -354 -505 -14 -19 -203 -289 -420 -600 -218 -311 -400 -572 -406
-580 -6 -8 -145 -207 -310 -442 l-299 -428 -59 83 c-32 45 -170 241 -306 435
-135 193 -355 508 -489 700 -134 191 -265 379 -292 417 -27 39 -106 151 -175
250 -70 99 -314 448 -543 775 -229 327 -421 602 -427 610 -6 8 -195 278 -420
600 -225 322 -414 592 -420 600 -6 8 -132 188 -280 400 -148 212 -274 392
-280 400 -87 123 -440 630 -440 632 0 3 8250 2 8258 -1z"/>
</g>
</svg>
